<?xml version="1.0" encoding="UTF-8"?>
<!DOCTYPE svg PUBLIC "-//W3C//DTD SVG 1.1//EN" "http://www.w3.org/Graphics/SVG/1.1/DTD/svg11.dtd">
<svg xmlns="http://www.w3.org/2000/svg" version="1.1" width="100px" height="100px" style="shape-rendering:geometricPrecision; text-rendering:geometricPrecision; image-rendering:optimizeQuality; fill-rule:evenodd; clip-rule:evenodd" xmlns:xlink="http://www.w3.org/1999/xlink">
<g><path style="opacity:0.42" fill="#00aff0" d="M 39.5,-0.5 C 46.1667,-0.5 52.8333,-0.5 59.5,-0.5C 80.5,5.16667 93.8333,18.5 99.5,39.5C 99.5,46.1667 99.5,52.8333 99.5,59.5C 93.8333,80.5 80.5,93.8333 59.5,99.5C 52.8333,99.5 46.1667,99.5 39.5,99.5C 18.5,93.8333 5.16667,80.5 -0.5,59.5C -0.5,52.8333 -0.5,46.1667 -0.5,39.5C 5.16667,18.5 18.5,5.16667 39.5,-0.5 Z M 45.5,15.5 C 49.1667,15.5 52.8333,15.5 56.5,15.5C 69.6948,19.0265 78.3615,27.3598 82.5,40.5C 83.9245,48.2291 83.5912,55.8958 81.5,63.5C 77.1667,71.1667 71.1667,77.1667 63.5,81.5C 56.6154,83.1589 49.6154,83.8256 42.5,83.5C 28.5,79.5 19.5,70.5 15.5,56.5C 15.5,51.8333 15.5,47.1667 15.5,42.5C 19.764,27.2407 29.764,18.2407 45.5,15.5 Z"/></g>
<g><path style="opacity:1" fill="#00aeef" d="M 43.5,7.5 C 69.4259,6.36301 85.2593,18.363 91,43.5C 93.0778,63.4829 84.9111,78.3162 66.5,88C 45.2235,95.35 27.7235,90.1834 14,72.5C 2.58476,49.571 6.75143,30.071 26.5,14C 32.0196,11.11 37.6863,8.94333 43.5,7.5 Z M 45.5,15.5 C 49.1667,15.5 52.8333,15.5 56.5,15.5C 69.6948,19.0265 78.3615,27.3598 82.5,40.5C 83.9245,48.2291 83.5912,55.8958 81.5,63.5C 77.1667,71.1667 71.1667,77.1667 63.5,81.5C 56.6154,83.1589 49.6154,83.8256 42.5,83.5C 28.5,79.5 19.5,70.5 15.5,56.5C 15.5,51.8333 15.5,47.1667 15.5,42.5C 19.764,27.2407 29.764,18.2407 45.5,15.5 Z"/></g>
<g><path style="opacity:0.993" fill="#00b3f5" d="M 45.5,15.5 C 29.764,18.2407 19.764,27.2407 15.5,42.5C 15.6505,34.3599 18.9839,27.5266 25.5,22C 31.8531,16.4838 39.1864,13.8172 47.5,14C 46.5842,14.2784 45.9175,14.7784 45.5,15.5 Z"/></g>
<g><path style="opacity:0.993" fill="#00b3f5" d="M 82.5,40.5 C 78.3615,27.3598 69.6948,19.0265 56.5,15.5C 55.6824,14.5909 54.0158,14.0909 51.5,14C 68.7567,14.9043 79.9233,23.7377 85,40.5C 85.6667,42.8333 85.6667,45.1667 85,47.5C 84.6667,45.5 84.3333,43.5 84,41.5C 83.6174,40.944 83.1174,40.6107 82.5,40.5 Z"/></g>
<g><path style="opacity:0.993" fill="#00b3f5" d="M 15.5,56.5 C 19.5,70.5 28.5,79.5 42.5,83.5C 42.8993,84.5211 44.2326,84.8545 46.5,84.5C 46.5,84.8333 46.5,85.1667 46.5,85.5C 26.5649,82.734 15.7316,71.4007 14,51.5C 14.0909,54.0158 14.5909,55.6824 15.5,56.5 Z"/></g>
<g><path style="opacity:0.993" fill="#00b3f6" d="M 81.5,63.5 C 79.3341,72.3669 73.6674,78.7002 64.5,82.5C 63.8933,82.3764 63.56,82.0431 63.5,81.5C 71.1667,77.1667 77.1667,71.1667 81.5,63.5 Z"/></g>
<g><path style="opacity:1" fill="#00b2f5" d="M 46.5,85.5 C 46.5,85.1667 46.5,84.8333 46.5,84.5C 47.5832,84.5394 48.5832,84.8728 49.5,85.5C 53.1397,84.4797 56.8064,83.9797 60.5,84C 55.8789,85.7824 51.2122,86.2824 46.5,85.5 Z"/></g>
</svg>
